<?xml version="1.0" standalone="no"?>
<!DOCTYPE svg PUBLIC "-//W3C//DTD SVG 20010904//EN"
 "http://www.w3.org/TR/2001/REC-SVG-20010904/DTD/svg10.dtd">
<svg version="1.0" xmlns="http://www.w3.org/2000/svg"
 width="385.000000pt" height="379.000000pt" viewBox="0 0 385.000000 379.000000"
 preserveAspectRatio="xMidYMid meet">

<g transform="translate(0.000000,379.000000) scale(0.100000,-0.100000)"
fill="#B1B9C2" stroke="none">
<path d="M495 3683 c-57 -8 -166 -55 -214 -93 -66 -53 -111 -107 -147 -181
-62 -126 -59 -48 -59 -1544 0 -1364 0 -1370 21 -1437 47 -148 155 -271 292
-330 l77 -33 1455 0 1455 0 57 22 c158 60 268 178 318 340 20 64 20 93 20
1440 0 1517 3 1432 -63 1557 -60 113 -150 192 -273 238 l-59 23 -1425 1 c-784
1 -1438 -1 -1455 -3z m2912 -230 c55 -30 109 -86 142 -148 l26 -50 3 -1364 c3
-1524 8 -1414 -68 -1510 -26 -33 -58 -59 -97 -77 l-58 -29 -1425 0 c-1161 0
-1432 2 -1463 13 -58 21 -129 83 -162 143 l-30 54 -3 1368 c-1 914 1 1382 8
1407 23 87 118 184 204 209 18 6 618 9 1456 8 l1425 -2 42 -22z"/>
<path d="M2140 2683 c-181 -30 -363 -142 -529 -326 -41 -45 -132 -160 -203
-255 -210 -281 -338 -401 -518 -485 -105 -49 -192 -73 -299 -83 -48 -5 -80
-13 -96 -26 -46 -36 -41 -128 9 -163 27 -20 113 -19 212 1 107 21 153 37 260
89 200 97 351 239 586 555 178 238 295 354 430 425 90 48 150 65 228 65 102 0
200 -55 200 -112 0 -9 -26 -50 -58 -90 -120 -150 -147 -219 -147 -373 0 -174
40 -263 177 -391 161 -150 365 -215 628 -200 127 7 291 38 326 61 13 8 28 32
35 54 14 46 0 82 -43 114 -26 19 -28 19 -110 2 -108 -22 -321 -31 -418 -16
-186 29 -324 118 -382 247 -17 37 -22 69 -23 129 0 100 26 160 112 261 80 93
96 126 97 199 0 78 -26 135 -93 202 -96 95 -241 139 -381 116z"/>
</g>
</svg>
